<svg width="116" height="29" viewBox="0 0 116 29" fill="none" xmlns="http://www.w3.org/2000/svg">
<path d="M88.2283 20.4753V14.1128H101.467V20.4753C101.467 21.699 100.475 22.691 99.2515 22.691H90.444C89.2203 22.691 88.2283 21.699 88.2283 20.4753Z" fill="#FF0000"/>
<path d="M101.1 10.9316C101.044 10.4391 100.596 10.0877 100.105 10.1519L88.8232 11.6242C88.3439 11.6868 88.0031 12.1219 88.0572 12.6022L88.2194 14.0432L101.259 12.3414L101.1 10.9316Z" fill="#FF0000"/>
<path d="M87.0549 20.4753V14.1128H100.294V20.4753C100.294 21.699 99.3019 22.691 98.0782 22.691H89.2707C88.0469 22.691 87.0549 21.699 87.0549 20.4753Z" fill="#0094FF"/>
<path d="M99.9266 10.9313C99.8711 10.4388 99.4226 10.0875 98.9312 10.1516L87.6499 11.624C87.1706 11.6865 86.8298 12.1216 86.8838 12.602L87.0461 14.0429L100.085 12.3411L99.9266 10.9313Z" fill="#0094FF"/>
<path d="M19.5231 23.1792H15.8273L12.9636 11.9693L10.1244 23.1792H6.4286L1.75372 6.85386H5.64537L8.50904 18.6512L11.6175 6.85386H14.3343L17.4182 18.6512L20.2574 6.85386H24.1735L19.5231 23.1792ZM34.9656 23.1792H31.8572V21.9554C31.0495 22.91 29.6544 23.4729 28.1124 23.4729C26.2278 23.4729 24.0005 22.2002 24.0005 19.5568C24.0005 16.791 26.2278 15.7386 28.1124 15.7386C29.6789 15.7386 31.074 16.2526 31.8572 17.1826V15.5917C31.8572 14.3924 30.8292 13.6092 29.2628 13.6092C27.99 13.6092 26.8152 14.0742 25.8117 15.0043L24.6369 12.9238C26.0809 11.6511 27.9411 11.0637 29.8012 11.0637C32.4936 11.0637 34.9656 12.1406 34.9656 15.5428V23.1792ZM29.3607 21.368C30.3642 21.368 31.3432 21.0253 31.8572 20.34V18.8715C31.3432 18.1861 30.3642 17.8435 29.3607 17.8435C28.1369 17.8435 27.1334 18.4799 27.1334 19.6302C27.1334 20.7316 28.1369 21.368 29.3607 21.368ZM42.0139 23.4729C39.8355 23.4729 38.6607 22.347 38.6607 20.2421V14.0742H36.7026V11.3574H38.6607V8.1266H41.7936V11.3574H44.1922V14.0742H41.7936V19.4099C41.7936 20.1442 42.1852 20.7071 42.8705 20.7071C43.3356 20.7071 43.7761 20.5358 43.9475 20.3645L44.6083 22.7142C44.1433 23.1302 43.3111 23.4729 42.0139 23.4729ZM51.826 23.4729C48.1791 23.4729 45.5602 20.903 45.5602 17.2561C45.5602 13.6336 48.1791 11.0637 51.826 11.0637C54.2491 11.0637 55.7176 12.1161 56.5009 13.1931L54.4694 15.1022C53.9064 14.27 53.0498 13.8295 51.9729 13.8295C50.0882 13.8295 48.7665 15.2001 48.7665 17.2561C48.7665 19.312 50.0882 20.7071 51.9729 20.7071C53.0498 20.7071 53.9064 20.2176 54.4694 19.4344L56.5009 21.319C55.7176 22.4205 54.2491 23.4729 51.826 23.4729ZM69.6449 23.1792H66.5365V15.9833C66.5365 14.3434 65.6799 13.8295 64.3337 13.8295C63.1344 13.8295 62.1798 14.5148 61.6414 15.2246V23.1792H58.5329V6.85386H61.6414V12.8994C62.4001 11.9938 63.8687 11.0637 65.8022 11.0637C68.3967 11.0637 69.6449 12.4833 69.6449 14.784V23.1792ZM81.6645 23.1792H72.8042V6.85386H81.3952C84.5036 6.85386 86.0946 8.83639 86.0946 11.0147C86.0946 13.0707 84.8218 14.4413 83.2799 14.7595C85.0176 15.0288 86.4128 16.7176 86.4128 18.7736C86.4128 21.2211 84.7729 23.1792 81.6645 23.1792ZM80.6365 13.3889C81.8113 13.3889 82.5456 12.6546 82.5456 11.6266C82.5456 10.5987 81.8113 9.8399 80.6365 9.8399H76.2798V13.3889H80.6365ZM80.7588 20.1687C82.0805 20.1687 82.8638 19.4589 82.8638 18.284C82.8638 17.2561 82.1295 16.3749 80.7588 16.3749H76.2798V20.1687H80.7588Z" fill="#AF0000"/>
<path d="M18.3164 23.1792H14.6205L11.7568 11.9693L8.91765 23.1792H5.22181L0.546937 6.85386H4.43859L7.30225 18.6512L10.4107 6.85386H13.1275L16.2114 18.6512L19.0506 6.85386H22.9667L18.3164 23.1792ZM33.7588 23.1792H30.6504V21.9554C29.8427 22.91 28.4476 23.4729 26.9056 23.4729C25.021 23.4729 22.7937 22.2002 22.7937 19.5568C22.7937 16.791 25.021 15.7386 26.9056 15.7386C28.4721 15.7386 29.8672 16.2526 30.6504 17.1826V15.5917C30.6504 14.3924 29.6224 13.6092 28.056 13.6092C26.7832 13.6092 25.6084 14.0742 24.6049 15.0043L23.4301 12.9238C24.8741 11.6511 26.7343 11.0637 28.5945 11.0637C31.2868 11.0637 33.7588 12.1406 33.7588 15.5428V23.1792ZM28.1539 21.368C29.1574 21.368 30.1364 21.0253 30.6504 20.34V18.8715C30.1364 18.1861 29.1574 17.8435 28.1539 17.8435C26.9301 17.8435 25.9266 18.4799 25.9266 19.6302C25.9266 20.7316 26.9301 21.368 28.1539 21.368ZM40.8071 23.4729C38.6288 23.4729 37.4539 22.347 37.4539 20.2421V14.0742H35.4959V11.3574H37.4539V8.1266H40.5868V11.3574H42.9854V14.0742H40.5868V19.4099C40.5868 20.1442 40.9784 20.7071 41.6638 20.7071C42.1288 20.7071 42.5694 20.5358 42.7407 20.3645L43.4015 22.7142C42.9365 23.1302 42.1043 23.4729 40.8071 23.4729ZM50.6192 23.4729C46.9723 23.4729 44.3534 20.903 44.3534 17.2561C44.3534 13.6336 46.9723 11.0637 50.6192 11.0637C53.0423 11.0637 54.5109 12.1161 55.2941 13.1931L53.2626 15.1022C52.6997 14.27 51.843 13.8295 50.7661 13.8295C48.8814 13.8295 47.5597 15.2001 47.5597 17.2561C47.5597 19.312 48.8814 20.7071 50.7661 20.7071C51.843 20.7071 52.6997 20.2176 53.2626 19.4344L55.2941 21.319C54.5109 22.4205 53.0423 23.4729 50.6192 23.4729ZM68.4381 23.1792H65.3297V15.9833C65.3297 14.3434 64.4731 13.8295 63.1269 13.8295C61.9276 13.8295 60.973 14.5148 60.4346 15.2246V23.1792H57.3261V6.85386H60.4346V12.8994C61.1933 11.9938 62.6619 11.0637 64.5955 11.0637C67.1899 11.0637 68.4381 12.4833 68.4381 14.784V23.1792ZM80.4577 23.1792H71.5974V6.85386H80.1884C83.2969 6.85386 84.8878 8.83639 84.8878 11.0147C84.8878 13.0707 83.615 14.4413 82.0731 14.7595C83.8108 15.0288 85.206 16.7176 85.206 18.7736C85.206 21.2211 83.5661 23.1792 80.4577 23.1792ZM79.4297 13.3889C80.6045 13.3889 81.3388 12.6546 81.3388 11.6266C81.3388 10.5987 80.6045 9.8399 79.4297 9.8399H75.073V13.3889H79.4297ZM79.5521 20.1687C80.8738 20.1687 81.657 19.4589 81.657 18.284C81.657 17.2561 80.9227 16.3749 79.5521 16.3749H75.073V20.1687H79.5521Z" fill="#0094FF"/>
<path d="M113.824 23.1792H110.349L107.656 19.1896L104.939 23.1792H101.488L105.674 17.1092L101.733 11.3574H105.209L107.656 15.0043L110.079 11.3574H113.555L109.59 17.1092L113.824 23.1792Z" fill="#0094FF"/>
<path d="M115.031 23.1792H111.555L108.863 19.1896L106.146 23.1792H102.695L106.88 17.1092L102.94 11.3574H106.415L108.863 15.0043L111.286 11.3574H114.762L110.797 17.1092L115.031 23.1792Z" fill="#FF0000"/>
<path d="M114.428 23.1792H110.952L108.26 19.1896L105.543 23.1792H102.092L106.277 17.1092L102.337 11.3574H105.812L108.26 15.0043L110.683 11.3574H114.158L110.193 17.1092L114.428 23.1792Z" fill="white"/>
<path d="M87.6248 20.4753V14.1128H100.864V20.4753C100.864 21.699 99.8717 22.691 98.648 22.691H89.8405C88.6168 22.691 87.6248 21.699 87.6248 20.4753Z" fill="white"/>
<path d="M100.497 10.9313C100.441 10.4388 99.9927 10.0875 99.5012 10.1516L88.2199 11.624C87.7406 11.6865 87.3998 12.1216 87.4539 12.602L87.6161 14.0429L100.655 12.3411L100.497 10.9313Z" fill="white"/>
<path d="M96.277 18.1044L93.1575 19.2742C93.0312 19.3216 92.8965 19.2282 92.8965 19.0934L92.8965 16.7537C92.8965 16.6189 93.0312 16.5255 93.1575 16.5729L96.277 17.7427C96.4441 17.8054 96.4441 18.0417 96.277 18.1044Z" fill="#AF0000"/>
<path d="M18.9199 23.1792H15.224L12.3604 11.9693L9.52117 23.1792H5.82533L1.15045 6.85386H5.0421L7.90577 18.6512L11.0142 6.85386H13.731L16.8149 18.6512L19.6541 6.85386H23.5703L18.9199 23.1792ZM34.3624 23.1792H31.2539V21.9554C30.4462 22.91 29.0511 23.4729 27.5091 23.4729C25.6245 23.4729 23.3972 22.2002 23.3972 19.5568C23.3972 16.791 25.6245 15.7386 27.5091 15.7386C29.0756 15.7386 30.4707 16.2526 31.2539 17.1826V15.5917C31.2539 14.3924 30.226 13.6092 28.6595 13.6092C27.3868 13.6092 26.2119 14.0742 25.2084 15.0043L24.0336 12.9238C25.4777 11.6511 27.3378 11.0637 29.198 11.0637C31.8903 11.0637 34.3624 12.1406 34.3624 15.5428V23.1792ZM28.7574 21.368C29.7609 21.368 30.7399 21.0253 31.2539 20.34V18.8715C30.7399 18.1861 29.7609 17.8435 28.7574 17.8435C27.5336 17.8435 26.5301 18.4799 26.5301 19.6302C26.5301 20.7316 27.5336 21.368 28.7574 21.368ZM41.4106 23.4729C39.2323 23.4729 38.0574 22.347 38.0574 20.2421V14.0742H36.0994V11.3574H38.0574V8.1266H41.1903V11.3574H43.589V14.0742H41.1903V19.4099C41.1903 20.1442 41.5819 20.7071 42.2673 20.7071C42.7323 20.7071 43.1729 20.5358 43.3442 20.3645L44.005 22.7142C43.54 23.1302 42.7078 23.4729 41.4106 23.4729ZM51.2227 23.4729C47.5758 23.4729 44.9569 20.903 44.9569 17.2561C44.9569 13.6336 47.5758 11.0637 51.2227 11.0637C53.6458 11.0637 55.1144 12.1161 55.8976 13.1931L53.8661 15.1022C53.3032 14.27 52.4465 13.8295 51.3696 13.8295C49.4849 13.8295 48.1633 15.2001 48.1633 17.2561C48.1633 19.312 49.4849 20.7071 51.3696 20.7071C52.4465 20.7071 53.3032 20.2176 53.8661 19.4344L55.8976 21.319C55.1144 22.4205 53.6458 23.4729 51.2227 23.4729ZM69.0417 23.1792H65.9332V15.9833C65.9332 14.3434 65.0766 13.8295 63.7304 13.8295C62.5311 13.8295 61.5766 14.5148 61.0381 15.2246V23.1792H57.9297V6.85386H61.0381V12.8994C61.7968 11.9938 63.2654 11.0637 65.199 11.0637C67.7934 11.0637 69.0417 12.4833 69.0417 14.784V23.1792ZM81.0612 23.1792H72.2009V6.85386H80.7919C83.9004 6.85386 85.4913 8.83639 85.4913 11.0147C85.4913 13.0707 84.2186 14.4413 82.6766 14.7595C84.4144 15.0288 85.8095 16.7176 85.8095 18.7736C85.8095 21.2211 84.1696 23.1792 81.0612 23.1792ZM80.0332 13.3889C81.208 13.3889 81.9423 12.6546 81.9423 11.6266C81.9423 10.5987 81.208 9.8399 80.0332 9.8399H75.6765V13.3889H80.0332ZM80.1556 20.1687C81.4773 20.1687 82.2605 19.4589 82.2605 18.284C82.2605 17.2561 81.5262 16.3749 80.1556 16.3749H75.6765V20.1687H80.1556Z" fill="white"/>
</svg>
