<svg width="8" height="7" viewBox="0 0 8 7" fill="none" xmlns="http://www.w3.org/2000/svg">
<path fill-rule="evenodd" clip-rule="evenodd" d="M0.973877 6.30212V2.60815H7.29383V6.30212C7.29383 6.52362 7.11426 6.70318 6.89276 6.70318H1.37494C1.15344 6.70318 0.973877 6.52362 0.973877 6.30212ZM1.43785 3.28288C1.43785 3.23461 1.47698 3.19548 1.52525 3.19548H4.14721H6.76916C6.81743 3.19548 6.85656 3.23461 6.85656 3.28288C6.85656 3.33115 6.81743 3.37028 6.76916 3.37028H4.2346V4.59386H6.76916C6.81743 4.59386 6.85656 4.63299 6.85656 4.68125C6.85656 4.72952 6.81743 4.76865 6.76916 4.76865H4.14721H1.52525C1.47698 4.76865 1.43785 4.72952 1.43785 4.68125C1.43785 4.63299 1.47698 4.59386 1.52525 4.59386H4.05981V3.37028H1.52525C1.47698 3.37028 1.43785 3.33115 1.43785 3.28288ZM1.52525 5.81752C1.47698 5.81752 1.43785 5.85665 1.43785 5.90492C1.43785 5.95319 1.47698 5.99231 1.52525 5.99231H6.76916C6.81743 5.99231 6.85656 5.95319 6.85656 5.90492C6.85656 5.85665 6.81743 5.81752 6.76916 5.81752H1.52525Z" fill="#26133E"/>
<mask id="mask0_312_2" style="mask-type:alpha" maskUnits="userSpaceOnUse" x="0" y="0" width="8" height="3">
<path d="M7.08872 0.824629C7.07868 0.735482 6.9975 0.67189 6.90854 0.6835L1.00212 1.45436C0.915364 1.46569 0.853679 1.54444 0.863467 1.63139L0.969774 2.57571L7.19439 1.76331L7.08872 0.824629Z" fill="#26133E"/>
</mask>
<g mask="url(#mask0_312_2)">
<rect x="-0.397461" y="1.74023" width="0.873986" height="2.79676" transform="rotate(-56.6138 -0.397461 1.74023)" fill="#26133E"/>
<rect x="1.35059" y="1.21558" width="0.873986" height="3.09528" transform="rotate(-56.6138 1.35059 1.21558)" fill="#26133E"/>
<rect x="3.27344" y="0.866699" width="0.873986" height="3.09528" transform="rotate(-56.6138 3.27344 0.866699)" fill="#26133E"/>
<rect x="5.5459" y="0.691162" width="0.873986" height="3.09528" transform="rotate(-56.6138 5.5459 0.691162)" fill="#26133E"/>
</g>
</svg>
