<svg width="32" height="30" viewBox="0 0 32 30" fill="none" xmlns="http://www.w3.org/2000/svg">
<path fill-rule="evenodd" clip-rule="evenodd" d="M1.07764 27.1262V9.46265H31.298V27.1262C31.298 28.1854 30.4394 29.044 29.3802 29.044H2.99542C1.93626 29.044 1.07764 28.1854 1.07764 27.1262ZM3.29749 12.697C3.29749 12.4662 3.4846 12.2791 3.7154 12.2791H16.2529H28.7905C29.0213 12.2791 29.2084 12.4662 29.2084 12.697C29.2084 12.9278 29.0213 13.1149 28.7905 13.1149H16.6708V18.9658H28.7905C29.0213 18.9658 29.2084 19.1529 29.2084 19.3837C29.2084 19.6145 29.0213 19.8016 28.7905 19.8016H16.2529H3.7154C3.4846 19.8016 3.29749 19.6145 3.29749 19.3837C3.29749 19.1529 3.4846 18.9658 3.7154 18.9658H15.835V13.1149H3.7154C3.4846 13.1149 3.29749 12.9278 3.29749 12.697ZM3.7154 24.8166C3.4846 24.8166 3.29749 25.0037 3.29749 25.2345C3.29749 25.4654 3.4846 25.6525 3.7154 25.6525H28.7905C29.0213 25.6525 29.2084 25.4654 29.2084 25.2345C29.2084 25.0037 29.0213 24.8166 28.7905 24.8166H3.7154Z" fill="white"/>
<path d="M1.07764 9.46265V9.4084H1.02339V9.46265H1.07764ZM31.298 9.46265H31.3522V9.4084H31.298V9.46265ZM16.6708 13.1149V13.0607H16.6166V13.1149H16.6708ZM16.6708 18.9658H16.6166V19.02H16.6708V18.9658ZM15.835 18.9658V19.02H15.8893V18.9658H15.835ZM15.835 13.1149H15.8893V13.0607H15.835V13.1149ZM1.02339 9.46265V27.1262H1.13188V9.46265H1.02339ZM31.298 9.4084H1.07764V9.51689H31.298V9.4084ZM31.3522 27.1262V9.46265H31.2437V27.1262H31.3522ZM29.3802 29.0982C30.4693 29.0982 31.3522 28.2153 31.3522 27.1262H31.2437C31.2437 28.1554 30.4094 28.9898 29.3802 28.9898V29.0982ZM2.99542 29.0982H29.3802V28.9898H2.99542V29.0982ZM1.02339 27.1262C1.02339 28.2153 1.9063 29.0982 2.99542 29.0982V28.9898C1.96621 28.9898 1.13188 28.1554 1.13188 27.1262H1.02339ZM3.7154 12.2249C3.45464 12.2249 3.24324 12.4363 3.24324 12.697H3.35173C3.35173 12.4962 3.51455 12.3333 3.7154 12.3333V12.2249ZM16.2529 12.2249H3.7154V12.3333H16.2529V12.2249ZM28.7905 12.2249H16.2529V12.3333H28.7905V12.2249ZM29.2626 12.697C29.2626 12.4363 29.0512 12.2249 28.7905 12.2249V12.3333C28.9913 12.3333 29.1541 12.4962 29.1541 12.697H29.2626ZM28.7905 13.1692C29.0512 13.1692 29.2626 12.9578 29.2626 12.697H29.1541C29.1541 12.8979 28.9913 13.0607 28.7905 13.0607V13.1692ZM16.6708 13.1692H28.7905V13.0607H16.6708V13.1692ZM16.7251 18.9658V13.1149H16.6166V18.9658H16.7251ZM28.7905 18.9115H16.6708V19.02H28.7905V18.9115ZM29.2626 19.3837C29.2626 19.1229 29.0512 18.9115 28.7905 18.9115V19.02C28.9913 19.02 29.1541 19.1828 29.1541 19.3837H29.2626ZM28.7905 19.8559C29.0512 19.8559 29.2626 19.6445 29.2626 19.3837H29.1541C29.1541 19.5845 28.9913 19.7474 28.7905 19.7474V19.8559ZM16.2529 19.8559H28.7905V19.7474H16.2529V19.8559ZM3.7154 19.8559H16.2529V19.7474H3.7154V19.8559ZM3.24324 19.3837C3.24324 19.6445 3.45464 19.8559 3.7154 19.8559V19.7474C3.51455 19.7474 3.35173 19.5845 3.35173 19.3837H3.24324ZM3.7154 18.9115C3.45464 18.9115 3.24324 19.1229 3.24324 19.3837H3.35173C3.35173 19.1828 3.51455 19.02 3.7154 19.02V18.9115ZM15.835 18.9115H3.7154V19.02H15.835V18.9115ZM15.7808 13.1149V18.9658H15.8893V13.1149H15.7808ZM3.7154 13.1692H15.835V13.0607H3.7154V13.1692ZM3.24324 12.697C3.24324 12.9578 3.45464 13.1692 3.7154 13.1692V13.0607C3.51455 13.0607 3.35173 12.8979 3.35173 12.697H3.24324ZM3.35173 25.2345C3.35173 25.0337 3.51455 24.8709 3.7154 24.8709V24.7624C3.45464 24.7624 3.24324 24.9738 3.24324 25.2345H3.35173ZM3.7154 25.5982C3.51455 25.5982 3.35173 25.4354 3.35173 25.2345H3.24324C3.24324 25.4953 3.45464 25.7067 3.7154 25.7067V25.5982ZM28.7905 25.5982H3.7154V25.7067H28.7905V25.5982ZM29.1541 25.2345C29.1541 25.4354 28.9913 25.5982 28.7905 25.5982V25.7067C29.0512 25.7067 29.2626 25.4953 29.2626 25.2345H29.1541ZM28.7905 24.8709C28.9913 24.8709 29.1541 25.0337 29.1541 25.2345H29.2626C29.2626 24.9738 29.0512 24.7624 28.7905 24.7624V24.8709ZM3.7154 24.8709H28.7905V24.7624H3.7154V24.8709Z" fill="white"/>
<mask id="mask0_213_10698" style="mask-type:alpha" maskUnits="userSpaceOnUse" x="0" y="0" width="31" height="10">
<path d="M30.3168 0.935275C30.2688 0.508998 29.8806 0.204915 29.4552 0.26043L1.21226 3.9465C0.797398 4.00064 0.502434 4.37722 0.549238 4.79297L1.05757 9.30848L30.8221 5.42383L30.3168 0.935275Z" fill="white" stroke="white" stroke-width="0.108488"/>
</mask>
<g mask="url(#mask0_213_10698)">
<rect x="-5.47876" y="5.31519" width="4.17917" height="13.3734" transform="rotate(-56.6138 -5.47876 5.31519)" fill="white"/>
<rect x="2.87964" y="2.80762" width="4.17917" height="14.8008" transform="rotate(-56.6138 2.87964 2.80762)" fill="white"/>
<rect x="12.0737" y="1.13599" width="4.17917" height="14.8008" transform="rotate(-56.6138 12.0737 1.13599)" fill="white"/>
<rect x="22.9397" y="0.300049" width="4.17917" height="14.8008" transform="rotate(-56.6138 22.9397 0.300049)" fill="white"/>
</g>
</svg>
