<svg width="8" height="7" viewBox="0 0 8 7" fill="none" xmlns="http://www.w3.org/2000/svg">
<path fill-rule="evenodd" clip-rule="evenodd" d="M0.973877 6.30212V2.60815H7.29383V6.30212C7.29383 6.52362 7.11426 6.70318 6.89276 6.70318H1.37494C1.15344 6.70318 0.973877 6.52362 0.973877 6.30212ZM1.43785 3.28288C1.43785 3.23461 1.47698 3.19548 1.52525 3.19548H4.14721H6.76916C6.81743 3.19548 6.85656 3.23461 6.85656 3.28288C6.85656 3.33115 6.81743 3.37028 6.76916 3.37028H4.2346V4.59386H6.76916C6.81743 4.59386 6.85656 4.63299 6.85656 4.68125C6.85656 4.72952 6.81743 4.76865 6.76916 4.76865H4.14721H1.52525C1.47698 4.76865 1.43785 4.72952 1.43785 4.68125C1.43785 4.63299 1.47698 4.59386 1.52525 4.59386H4.05981V3.37028H1.52525C1.47698 3.37028 1.43785 3.33115 1.43785 3.28288ZM1.52525 5.81752C1.47698 5.81752 1.43785 5.85665 1.43785 5.90492C1.43785 5.95319 1.47698 5.99231 1.52525 5.99231H6.76916C6.81743 5.99231 6.85656 5.95319 6.85656 5.90492C6.85656 5.85665 6.81743 5.81752 6.76916 5.81752H1.52525Z" fill="white"/>
<path d="M0.973877 2.60815V2.59681H0.962533V2.60815H0.973877ZM7.29383 2.60815H7.30517V2.59681H7.29383V2.60815ZM4.2346 3.37028V3.35893H4.22326V3.37028H4.2346ZM4.2346 4.59386H4.22326V4.6052H4.2346V4.59386ZM4.05981 4.59386V4.6052H4.07115V4.59386H4.05981ZM4.05981 3.37028H4.07115V3.35893H4.05981V3.37028ZM0.962533 2.60815V6.30212H0.985221V2.60815H0.962533ZM7.29383 2.59681H0.973877V2.6195H7.29383V2.59681ZM7.30517 6.30212V2.60815H7.28248V6.30212H7.30517ZM6.89276 6.71453C7.12053 6.71453 7.30517 6.52989 7.30517 6.30212H7.28248C7.28248 6.51735 7.108 6.69184 6.89276 6.69184V6.71453ZM1.37494 6.71453H6.89276V6.69184H1.37494V6.71453ZM0.962533 6.30212C0.962533 6.52989 1.14717 6.71453 1.37494 6.71453V6.69184C1.1597 6.69184 0.985221 6.51736 0.985221 6.30212H0.962533ZM1.52525 3.18413C1.47071 3.18413 1.4265 3.22834 1.4265 3.28288H1.44919C1.44919 3.24087 1.48324 3.20682 1.52525 3.20682V3.18413ZM4.14721 3.18413H1.52525V3.20682H4.14721V3.18413ZM6.76916 3.18413H4.14721V3.20682H6.76916V3.18413ZM6.86791 3.28288C6.86791 3.22834 6.8237 3.18413 6.76916 3.18413V3.20682C6.81117 3.20682 6.84522 3.24087 6.84522 3.28288H6.86791ZM6.76916 3.38162C6.8237 3.38162 6.86791 3.33741 6.86791 3.28288H6.84522C6.84522 3.32488 6.81117 3.35893 6.76916 3.35893V3.38162ZM4.2346 3.38162H6.76916V3.35893H4.2346V3.38162ZM4.24595 4.59386V3.37028H4.22326V4.59386H4.24595ZM6.76916 4.58251H4.2346V4.6052H6.76916V4.58251ZM6.86791 4.68125C6.86791 4.62672 6.8237 4.58251 6.76916 4.58251V4.6052C6.81117 4.6052 6.84522 4.63925 6.84522 4.68125H6.86791ZM6.76916 4.78C6.8237 4.78 6.86791 4.73579 6.86791 4.68125H6.84522C6.84522 4.72326 6.81117 4.75731 6.76916 4.75731V4.78ZM4.14721 4.78H6.76916V4.75731H4.14721V4.78ZM1.52525 4.78H4.14721V4.75731H1.52525V4.78ZM1.4265 4.68125C1.4265 4.73579 1.47071 4.78 1.52525 4.78V4.75731C1.48324 4.75731 1.44919 4.72326 1.44919 4.68125H1.4265ZM1.52525 4.58251C1.47071 4.58251 1.4265 4.62672 1.4265 4.68125H1.44919C1.44919 4.63925 1.48324 4.6052 1.52525 4.6052V4.58251ZM4.05981 4.58251H1.52525V4.6052H4.05981V4.58251ZM4.04846 3.37028V4.59386H4.07115V3.37028H4.04846ZM1.52525 3.38162H4.05981V3.35893H1.52525V3.38162ZM1.4265 3.28288C1.4265 3.33741 1.47071 3.38162 1.52525 3.38162V3.35893C1.48324 3.35893 1.44919 3.32488 1.44919 3.28288H1.4265ZM1.44919 5.90492C1.44919 5.86291 1.48324 5.82886 1.52525 5.82886V5.80617C1.47071 5.80617 1.4265 5.85038 1.4265 5.90492H1.44919ZM1.52525 5.98097C1.48324 5.98097 1.44919 5.94692 1.44919 5.90492H1.4265C1.4265 5.95945 1.47071 6.00366 1.52525 6.00366V5.98097ZM6.76916 5.98097H1.52525V6.00366H6.76916V5.98097ZM6.84522 5.90492C6.84522 5.94692 6.81117 5.98097 6.76916 5.98097V6.00366C6.8237 6.00366 6.86791 5.95945 6.86791 5.90492H6.84522ZM6.76916 5.82886C6.81117 5.82886 6.84522 5.86291 6.84522 5.90492H6.86791C6.86791 5.85038 6.8237 5.80617 6.76916 5.80617V5.82886ZM1.52525 5.82886H6.76916V5.80617H1.52525V5.82886Z" fill="white"/>
<mask id="mask0_497_2" style="mask-type:alpha" maskUnits="userSpaceOnUse" x="0" y="0" width="8" height="3">
<path d="M7.08872 0.824629C7.07868 0.735482 6.9975 0.67189 6.90854 0.6835L1.00212 1.45436C0.915364 1.46569 0.853679 1.54444 0.863467 1.63139L0.969774 2.57571L7.19439 1.76331L7.08872 0.824629Z" fill="white" stroke="white" stroke-width="0.022688"/>
</mask>
<g mask="url(#mask0_497_2)">
<rect x="-0.397461" y="1.74023" width="0.873986" height="2.79676" transform="rotate(-56.6138 -0.397461 1.74023)" fill="white"/>
<rect x="1.35059" y="1.21558" width="0.873986" height="3.09528" transform="rotate(-56.6138 1.35059 1.21558)" fill="white"/>
<rect x="3.27344" y="0.866699" width="0.873986" height="3.09528" transform="rotate(-56.6138 3.27344 0.866699)" fill="white"/>
<rect x="5.5459" y="0.691162" width="0.873986" height="3.09528" transform="rotate(-56.6138 5.5459 0.691162)" fill="white"/>
</g>
</svg>
