<svg width="31" height="29" viewBox="0 0 31 29" fill="none" xmlns="http://www.w3.org/2000/svg">
<path d="M8.1001 1.01782L14.0695 7.87497L20.9572 1.01782" stroke="white" stroke-width="0.83485" stroke-linecap="round"/>
<path d="M2.95703 27.5894L3.25076 26.3557M27.8142 27.5894L27.6325 26.5904" stroke="white" stroke-width="2.50455" stroke-linecap="round" stroke-linejoin="round"/>
<mask id="path-3-inside-1_213_10754" fill="white">
<path fill-rule="evenodd" clip-rule="evenodd" d="M0.385742 8.6863C0.385742 7.76415 1.13329 7.0166 2.05544 7.0166H28.716C29.6382 7.0166 30.3857 7.76415 30.3857 8.6863V25.0612C30.3857 25.9833 29.6382 26.7309 28.716 26.7309H2.05544C1.13329 26.7309 0.385742 25.9833 0.385742 25.0612V8.6863ZM2.10038 10.4018C2.10038 9.47965 2.84793 8.7321 3.77008 8.7321H21.8593C22.7814 8.7321 23.529 9.47965 23.529 10.4018V23.3481C23.529 24.2703 22.7814 25.0178 21.8593 25.0178H3.77008C2.84793 25.0178 2.10038 24.2703 2.10038 23.3481V10.4018ZM25.2206 8.7321C24.7596 8.7321 24.3858 9.10587 24.3858 9.56695V12.183C24.3858 12.644 24.7596 13.0178 25.2206 13.0178H27.8366C28.2977 13.0178 28.6715 12.644 28.6715 12.183V9.56695C28.6715 9.10587 28.2977 8.7321 27.8367 8.7321H25.2206ZM24.3858 14.7099C24.3858 14.2488 24.7596 13.875 25.2206 13.875H27.8367C28.2977 13.875 28.6715 14.2488 28.6715 14.7099V17.3259C28.6715 17.7869 28.2977 18.1607 27.8366 18.1607H25.2206C24.7596 18.1607 24.3858 17.7869 24.3858 17.3259V14.7099ZM26.5286 25.0179C27.7121 25.0179 28.6715 24.0585 28.6715 22.875C28.6715 21.6916 27.7121 20.7322 26.5286 20.7322C25.3452 20.7322 24.3858 21.6916 24.3858 22.875C24.3858 24.0585 25.3452 25.0179 26.5286 25.0179Z"/>
</mask>
<path fill-rule="evenodd" clip-rule="evenodd" d="M0.385742 8.6863C0.385742 7.76415 1.13329 7.0166 2.05544 7.0166H28.716C29.6382 7.0166 30.3857 7.76415 30.3857 8.6863V25.0612C30.3857 25.9833 29.6382 26.7309 28.716 26.7309H2.05544C1.13329 26.7309 0.385742 25.9833 0.385742 25.0612V8.6863ZM2.10038 10.4018C2.10038 9.47965 2.84793 8.7321 3.77008 8.7321H21.8593C22.7814 8.7321 23.529 9.47965 23.529 10.4018V23.3481C23.529 24.2703 22.7814 25.0178 21.8593 25.0178H3.77008C2.84793 25.0178 2.10038 24.2703 2.10038 23.3481V10.4018ZM25.2206 8.7321C24.7596 8.7321 24.3858 9.10587 24.3858 9.56695V12.183C24.3858 12.644 24.7596 13.0178 25.2206 13.0178H27.8366C28.2977 13.0178 28.6715 12.644 28.6715 12.183V9.56695C28.6715 9.10587 28.2977 8.7321 27.8367 8.7321H25.2206ZM24.3858 14.7099C24.3858 14.2488 24.7596 13.875 25.2206 13.875H27.8367C28.2977 13.875 28.6715 14.2488 28.6715 14.7099V17.3259C28.6715 17.7869 28.2977 18.1607 27.8366 18.1607H25.2206C24.7596 18.1607 24.3858 17.7869 24.3858 17.3259V14.7099ZM26.5286 25.0179C27.7121 25.0179 28.6715 24.0585 28.6715 22.875C28.6715 21.6916 27.7121 20.7322 26.5286 20.7322C25.3452 20.7322 24.3858 21.6916 24.3858 22.875C24.3858 24.0585 25.3452 25.0179 26.5286 25.0179Z" fill="white"/>
<path d="M2.05544 6.18175C0.672218 6.18175 -0.449108 7.30308 -0.449108 8.6863H1.22059C1.22059 8.22523 1.59437 7.85145 2.05544 7.85145V6.18175ZM28.716 6.18175H2.05544V7.85145H28.716V6.18175ZM31.2206 8.6863C31.2206 7.30308 30.0993 6.18175 28.716 6.18175V7.85145C29.1771 7.85145 29.5509 8.22523 29.5509 8.6863H31.2206ZM31.2206 25.0612V8.6863H29.5509V25.0612H31.2206ZM28.716 27.5657C30.0993 27.5657 31.2206 26.4444 31.2206 25.0612H29.5509C29.5509 25.5223 29.1771 25.896 28.716 25.896V27.5657ZM2.05544 27.5657H28.716V25.896H2.05544V27.5657ZM-0.449108 25.0612C-0.449108 26.4444 0.672216 27.5657 2.05544 27.5657V25.896C1.59437 25.896 1.22059 25.5223 1.22059 25.0612H-0.449108ZM-0.449108 8.6863V25.0612H1.22059V8.6863H-0.449108ZM3.77008 7.89725C2.38686 7.89725 1.26553 9.01857 1.26553 10.4018H2.93523C2.93523 9.94072 3.30901 9.56695 3.77008 9.56695V7.89725ZM21.8593 7.89725H3.77008V9.56695H21.8593V7.89725ZM24.3638 10.4018C24.3638 9.01857 23.2425 7.89725 21.8593 7.89725V9.56695C22.3203 9.56695 22.6941 9.94072 22.6941 10.4018H24.3638ZM24.3638 23.3481V10.4018H22.6941V23.3481H24.3638ZM21.8593 25.8527C23.2425 25.8527 24.3638 24.7313 24.3638 23.3481H22.6941C22.6941 23.8092 22.3203 24.183 21.8593 24.183V25.8527ZM3.77008 25.8527H21.8593V24.183H3.77008V25.8527ZM1.26553 23.3481C1.26553 24.7313 2.38685 25.8527 3.77008 25.8527V24.183C3.309 24.183 2.93523 23.8092 2.93523 23.3481H1.26553ZM1.26553 10.4018V23.3481H2.93523V10.4018H1.26553ZM25.2206 9.56695V9.56695V7.89725C24.2985 7.89725 23.5509 8.6448 23.5509 9.56695H25.2206ZM25.2206 12.183V9.56695H23.5509V12.183H25.2206ZM25.2206 12.183V12.183H23.5509C23.5509 13.1051 24.2985 13.8527 25.2206 13.8527V12.183ZM27.8366 12.183H25.2206V13.8527H27.8366V12.183ZM27.8367 12.183L27.8366 12.183V13.8527C28.7588 13.8527 29.5064 13.1051 29.5064 12.183H27.8367ZM27.8367 9.56695V12.183H29.5064V9.56695H27.8367ZM27.8367 9.56695H29.5064C29.5064 8.6448 28.7588 7.89725 27.8367 7.89725V9.56695ZM25.2206 9.56695H27.8367V7.89725H25.2206V9.56695ZM25.2206 13.0402C24.2985 13.0402 23.5509 13.7877 23.5509 14.7099H25.2206V14.7099V13.0402ZM27.8367 13.0402H25.2206V14.7099H27.8367V13.0402ZM29.5064 14.7099C29.5064 13.7877 28.7588 13.0402 27.8367 13.0402V14.7099H29.5064ZM29.5064 17.3259V14.7099H27.8367V17.3259H29.5064ZM27.8366 18.9956C28.7588 18.9956 29.5064 18.248 29.5064 17.3259H27.8367H27.8366V18.9956ZM25.2206 18.9956H27.8366V17.3259H25.2206V18.9956ZM23.5509 17.3259C23.5509 18.248 24.2985 18.9956 25.2206 18.9956V17.3259V17.3259H23.5509ZM23.5509 14.7099V17.3259H25.2206V14.7099H23.5509ZM27.8367 22.875C27.8367 23.5974 27.251 24.183 26.5286 24.183V25.8527C28.1732 25.8527 29.5064 24.5196 29.5064 22.875H27.8367ZM26.5286 21.567C27.251 21.567 27.8367 22.1526 27.8367 22.875H29.5064C29.5064 21.2305 28.1732 19.8973 26.5286 19.8973V21.567ZM25.2206 22.875C25.2206 22.1526 25.8063 21.567 26.5286 21.567V19.8973C24.8841 19.8973 23.5509 21.2305 23.5509 22.875H25.2206ZM26.5286 24.183C25.8063 24.183 25.2206 23.5974 25.2206 22.875H23.5509C23.5509 24.5196 24.8841 25.8527 26.5286 25.8527V24.183Z" fill="white" mask="url(#path-3-inside-1_213_10754)"/>
<ellipse cx="14.9573" cy="7.01653" rx="6" ry="1.71429" fill="white"/>
<circle cx="8.10006" cy="1.01657" r="0.857143" fill="white"/>
<circle cx="20.9575" cy="1.01657" r="0.857143" fill="white"/>
</svg>
